<svg width="24" height="24" viewBox="0 0 24 24" fill="none" xmlns="http://www.w3.org/2000/svg">
<path d="M8.44444 4H4.55556C4.24873 4 4 4.24873 4 4.55556V8.44444C4 8.75127 4.24873 9 4.55556 9H8.44444C8.75127 9 9 8.75127 9 8.44444V4.55556C9 4.24873 8.75127 4 8.44444 4Z" stroke="white" stroke-width="2" stroke-linecap="round" stroke-linejoin="round"/>
<path d="M19.4444 4H15.5556C15.2487 4 15 4.24873 15 4.55556V8.44444C15 8.75127 15.2487 9 15.5556 9H19.4444C19.7513 9 20 8.75127 20 8.44444V4.55556C20 4.24873 19.7513 4 19.4444 4Z" stroke="white" stroke-width="2" stroke-linecap="round" stroke-linejoin="round"/>
<path d="M19.4444 15H15.5556C15.2487 15 15 15.2487 15 15.5556V19.4444C15 19.7513 15.2487 20 15.5556 20H19.4444C19.7513 20 20 19.7513 20 19.4444V15.5556C20 15.2487 19.7513 15 19.4444 15Z" stroke="white" stroke-width="2" stroke-linecap="round" stroke-linejoin="round"/>
<path d="M8.44444 15H4.55556C4.24873 15 4 15.2487 4 15.5556V19.4444C4 19.7513 4.24873 20 4.55556 20H8.44444C8.75127 20 9 19.7513 9 19.4444V15.5556C9 15.2487 8.75127 15 8.44444 15Z" stroke="white" stroke-width="2" stroke-linecap="round" stroke-linejoin="round"/>
</svg>
